<?xml version="1.0" encoding="utf-8"?>
<!-- Generator: Adobe Illustrator 25.2.3, SVG Export Plug-In . SVG Version: 6.00 Build 0)  -->
<svg version="1.1" id="Layer_1" xmlns="http://www.w3.org/2000/svg" xmlns:xlink="http://www.w3.org/1999/xlink" x="0px" y="0px"
	 viewBox="0 0 24 24" style="enable-background:new 0 0 24 24;" xml:space="preserve">
<g>
	<path d="M12.0015,10.1997c-0.0005,0-0.001,0-0.002,0c-0.5308,0-1.0298,0.2075-1.4053,0.584s-0.583,0.8774-0.583,1.4106
		c-0.001,1.1006,0.8901,1.9971,1.9873,1.999c0.0005,0,0.001,0,0.002,0c0.5308,0,1.0298-0.208,1.4048-0.585
		c0.376-0.377,0.583-0.8779,0.584-1.4111C13.9902,11.0967,13.0986,10.2007,12.0015,10.1997z"/>
	<path d="M12,0C5.3833,0,0,5.3833,0,12c0,6.6162,5.3833,12,12,12c6.6162,0,12-5.3838,12-12C24,5.3833,18.6162,0,12,0z M21.7861,12
		c0,5.3965-4.3906,9.7871-9.7871,9.7871c-5.396,0-9.7861-4.3906-9.7861-9.7871c0-5.396,4.3901-9.7861,9.7861-9.7861
		C17.3955,2.2139,21.7861,6.604,21.7861,12z"/>
	<path d="M6.2754,10.2007l-0.6733-0.0005l0.145,0.0723c-0.8408,0.2329-1.4604,1.0063-1.4614,1.9229
		c-0.001,1.1006,0.8901,1.9971,1.9873,1.999c0.0005,0,0.001,0,0.002,0c0.5308,0,1.0298-0.208,1.4058-0.585
		c0.3755-0.377,0.5825-0.8779,0.583-1.4116c0.0005-0.5327-0.2061-1.0342-0.5815-1.4116S6.8066,10.2007,6.2754,10.2007z"/>
	<path d="M17.6729,10.1982l0.0322,0.0322c-0.3975,0.0703-0.7637,0.2607-1.0547,0.5527c-0.376,0.3765-0.583,0.8774-0.584,1.4106
		c-0.001,1.1011,0.8906,1.9966,1.9883,1.9985c0.001,0,0.001,0,0.002,0c0.5303,0,1.0293-0.208,1.4053-0.585
		s0.583-0.8779,0.584-1.4111c0-1.1006-0.8926-1.9966-1.9893-1.9976L17.6729,10.1982z"/>
</g>
</svg>
