<?xml version="1.0" encoding="utf-8"?>
<!-- Generator: Adobe Illustrator 25.2.3, SVG Export Plug-In . SVG Version: 6.00 Build 0)  -->
<svg version="1.1" id="Layer_1" xmlns="http://www.w3.org/2000/svg" xmlns:xlink="http://www.w3.org/1999/xlink" x="0px" y="0px"
	 viewBox="0 0 23.8297 24" style="enable-background:new 0 0 23.8297 24;" xml:space="preserve">
<g>
	<rect y="0.2959" width="16.7095" height="1.5015"/>
	<rect y="7.5986" width="16.7095" height="1.5015"/>
	<rect y="14.9004" width="9.8398" height="1.5029"/>
	<rect y="22.2021" width="9.8398" height="1.502"/>
	<path d="M23.8267,4.6987c0.0879-2.3228-1.7266-4.2974-4.0498-4.4028l-0.166-0.0073v1.499l0.1484,0.0093
		c1.498,0.0972,2.6484,1.395,2.5664,2.9106c0.0811,1.4976-1.0693,2.7949-2.5654,2.8916l-0.1494,0.0093v1.499l0.166-0.0073
		C22.1001,8.9951,23.9146,7.021,23.8267,4.6987z"/>
	<polygon points="21.7065,14.4902 18.6362,17.5605 15.5659,14.4902 14.5044,15.5527 17.5747,18.623 14.5044,21.6934 
		15.5659,22.7549 18.6362,19.6846 21.7065,22.7549 22.769,21.6934 19.6978,18.623 22.769,15.5527 	"/>
</g>
</svg>
