<?xml version="1.0" encoding="utf-8"?>
<!-- Generator: Adobe Illustrator 25.2.3, SVG Export Plug-In . SVG Version: 6.00 Build 0)  -->
<svg version="1.1" id="Layer_1" xmlns="http://www.w3.org/2000/svg" xmlns:xlink="http://www.w3.org/1999/xlink" x="0px" y="0px"
	 viewBox="0 0 24 24" style="enable-background:new 0 0 24 24;" xml:space="preserve">
<g>
	<path d="M10.9819,16.1641c-0.2666,0.2656-0.4194,0.6367-0.4194,1.0176c0,0.3799,0.1528,0.751,0.4199,1.0176
		c0.269,0.2656,0.6401,0.4189,1.0176,0.4189c0.3784,0,0.7485-0.1533,1.0166-0.4209c0.2676-0.2686,0.4209-0.6387,0.4209-1.0156
		c0-0.376-0.1533-0.7471-0.4219-1.0176C12.4766,15.626,11.5156,15.6309,10.9819,16.1641z"/>
	<path d="M12,5.3818c-0.7925,0-1.4375,0.6211-1.4375,1.3843v5.3931c0,0.7632,0.645,1.3848,1.4375,1.3848l0.1587-0.001v-0.0088
		c0.334-0.0352,0.6411-0.1797,0.8784-0.417c0.2578-0.2588,0.4004-0.5991,0.4004-0.958V6.7661
		C13.4375,6.0029,12.7925,5.3818,12,5.3818z"/>
	<path d="M12,0C5.3833,0,0,5.3833,0,12c0,6.6162,5.3833,12,12,12c6.6162,0,12-5.3838,12-12C24,5.3833,18.6162,0,12,0z M12,21.7861
		c-5.3965,0-9.7871-4.3906-9.7871-9.7871c0-5.396,4.3906-9.7861,9.7871-9.7861s9.7861,4.3901,9.7861,9.7861
		C21.7861,17.3955,17.3965,21.7861,12,21.7861z"/>
</g>
</svg>
