<?xml version="1.0" encoding="utf-8"?>
<!-- Generator: Adobe Illustrator 25.2.3, SVG Export Plug-In . SVG Version: 6.00 Build 0)  -->
<svg version="1.1" id="Layer_1" xmlns="http://www.w3.org/2000/svg" xmlns:xlink="http://www.w3.org/1999/xlink" x="0px" y="0px"
	 viewBox="0 0 24 24" style="enable-background:new 0 0 24 24;" xml:space="preserve">
<g>
	<path d="M12,0C5.3833,0,0,5.3833,0,12c0,6.6162,5.3833,12,12,12c6.6162,0,12-5.3838,12-12C24,5.3833,18.6162,0,12,0z M12,21.7861
		c-5.3965,0-9.7871-4.3906-9.7871-9.7871c0-5.396,4.3906-9.7861,9.7871-9.7861s9.7861,4.3901,9.7861,9.7861
		C21.7861,17.3955,17.3965,21.7861,12,21.7861z"/>
	<path d="M11.8013,8.2637c0.0005,0,0.001,0,0.002,0c0.5317,0,1.0327-0.2065,1.4097-0.5815c0.377-0.3755,0.585-0.8745,0.5859-1.4058
		c0-0.5312-0.207-1.0308-0.584-1.4072c-0.3765-0.3755-0.877-0.583-1.4102-0.5835c-0.0005,0-0.001,0-0.002,0
		c-1.1001,0-1.9956,0.8911-1.9966,1.9873C9.8057,7.3696,10.7007,8.2627,11.8013,8.2637z"/>
	<polygon points="13.752,9.6318 9.4917,9.6294 9.4897,12.3032 11.0664,12.3052 11.063,16.1768 9.4868,16.1748 9.4844,18.8125 
		9.7104,18.5869 15.0586,18.5928 15.0615,16.1797 13.7471,16.1787 	"/>
</g>
</svg>
