<?xml version="1.0" encoding="utf-8"?>
<!-- Generator: Adobe Illustrator 25.2.3, SVG Export Plug-In . SVG Version: 6.00 Build 0)  -->
<svg version="1.1" id="Layer_1" xmlns="http://www.w3.org/2000/svg" xmlns:xlink="http://www.w3.org/1999/xlink" x="0px" y="0px"
	 viewBox="0 0 23.8301 24" style="enable-background:new 0 0 23.8301 24;" xml:space="preserve">
<g>
	<rect y="0.291" width="16.709" height="1.5015"/>
	<rect y="7.5923" width="16.709" height="1.5015"/>
	<rect y="14.8945" width="9.8389" height="1.502"/>
	<rect y="22.1963" width="9.8389" height="1.5029"/>
	<path d="M23.8271,4.6924c0.0869-2.3223-1.7285-4.2964-4.0508-4.4014l-0.166-0.0073v1.499l0.1494,0.0093
		c1.4961,0.0967,2.6465,1.394,2.5654,2.9092c0.0811,1.4976-1.0693,2.7949-2.5654,2.8916l-0.1494,0.0093v1.499l0.166-0.0073
		C22.0986,8.9888,23.9141,7.0146,23.8271,4.6924z"/>
	<polygon points="19.3857,13.5225 17.8838,13.5225 17.8838,17.8643 13.542,17.8643 13.542,19.3672 17.8838,19.3672 17.8838,23.709 
		19.3857,23.709 19.3857,19.3672 23.7275,19.3672 23.7275,17.8643 19.3857,17.8643 	"/>
</g>
</svg>
