<?xml version="1.0" encoding="utf-8"?>
<!-- Generator: Adobe Illustrator 25.2.3, SVG Export Plug-In . SVG Version: 6.00 Build 0)  -->
<svg version="1.1" id="Layer_1" xmlns="http://www.w3.org/2000/svg" xmlns:xlink="http://www.w3.org/1999/xlink" x="0px" y="0px"
	 viewBox="0 0 23.8297 24" style="enable-background:new 0 0 23.8297 24;" xml:space="preserve">
<g>
	<rect y="0.2959" width="16.7095" height="1.5015"/>
	<rect y="7.5986" width="16.7095" height="1.5015"/>
	<rect y="14.8994" width="16.7095" height="1.5029"/>
	<rect y="22.2021" width="16.7095" height="1.502"/>
	<path d="M23.8267,4.6973c0.0879-2.3223-1.7266-4.2964-4.0498-4.4014l-0.166-0.0073v1.499l0.1484,0.0093
		c1.4971,0.0972,2.6475,1.3945,2.5664,2.9092c0.082,1.498-1.0684,2.7959-2.5664,2.8931l-0.1484,0.0093v1.499l0.166-0.0073
		C22.1001,8.9951,23.9146,7.0205,23.8267,4.6973z"/>
	<path d="M19.7769,14.9004l-0.166-0.0078v1.499l0.1494,0.0098c1.4971,0.0967,2.6475,1.3945,2.5654,2.9102
		c0.0811,1.498-1.0693,2.7949-2.5654,2.8916l-0.1494,0.0098v1.498l0.166-0.0078c2.3252-0.1045,4.1416-2.082,4.0488-4.3945
		C23.9185,16.9834,22.1021,15.0049,19.7769,14.9004z"/>
</g>
</svg>
