<?xml version="1.0" encoding="utf-8"?>
<!-- Generator: Adobe Illustrator 25.2.3, SVG Export Plug-In . SVG Version: 6.00 Build 0)  -->
<svg version="1.1" id="Layer_1" xmlns="http://www.w3.org/2000/svg" xmlns:xlink="http://www.w3.org/1999/xlink" x="0px" y="0px"
	 viewBox="0 0 22.7148 24" style="enable-background:new 0 0 22.7148 24;" xml:space="preserve">
<path d="M11.416,0.644L11.356,0.6416C5.0933,0.6426-0.001,5.7393,0,12.0024c0.0015,6.2603,5.0957,11.355,11.3726,11.356l0.04-0.002
	C17.6367,23.3184,22.7061,18.2246,22.7148,12C22.7061,5.7759,17.6367,0.6816,11.416,0.644z M10.6055,12.751v8.9365
	c-1.978-0.8066-3.542-4.5576-3.7031-8.9365H10.6055z M1.541,11.2495c0.293-3.8257,2.7222-7.0757,6.2783-8.4453
	c-1.4141,1.9492-2.3057,5.0444-2.4189,8.4453H1.541z M7.8198,21.1953C4.2632,19.8271,1.834,16.5771,1.541,12.751h3.8594
	C5.5137,16.1514,6.4058,19.2461,7.8198,21.1953z M6.9023,11.2495c0.1611-4.3794,1.7251-8.1309,3.7031-8.9375v8.9375H6.9023z
	 M12.1074,21.7109v-8.96h3.7539C15.6973,17.1865,14.1113,20.9502,12.1074,21.7109z M12.1074,11.2495V2.2891
	c2.0039,0.7603,3.5898,4.5239,3.7539,8.9604H12.1074z M21.1719,12.751c-0.293,3.8096-2.7168,7.0605-6.2598,8.4346
	c1.6484-2.5146,2.4951-5.417,2.458-8.4346H21.1719z M21.1719,11.2495h-3.8018c0.0371-3.0181-0.8096-5.9204-2.459-8.4351
	C18.4541,4.188,20.8789,7.439,21.1719,11.2495z M11.3965,23.1982L11.3965,23.1982L11.3965,23.1982L11.3965,23.1982z"/>
</svg>
