<?xml version="1.0" encoding="utf-8"?>
<!-- Generator: Adobe Illustrator 25.2.3, SVG Export Plug-In . SVG Version: 6.00 Build 0)  -->
<svg version="1.1" id="Layer_1" xmlns="http://www.w3.org/2000/svg" xmlns:xlink="http://www.w3.org/1999/xlink" x="0px" y="0px"
	 viewBox="0 0 23.9869 24" style="enable-background:new 0 0 23.9869 24;" xml:space="preserve">
<path d="M23.7561,22.6354l-6.3966-6.4005l0.2949-0.3864c1.3305-1.7461,2.0342-3.8193,2.0342-5.9966
	C19.6887,4.4193,15.2727,0,9.8446,0S0,4.4193,0,9.8519c0,5.4311,4.4164,9.8509,9.8446,9.8509c2.1744,0,4.2456-0.7037,5.9917-2.0352
	l0.3864-0.2959l6.3966,6.3995C22.7585,23.9095,22.9765,24,23.1751,24c0.1966,0,0.4137-0.0905,0.5499-0.2278
	c0.1703-0.1616,0.2599-0.3611,0.2618-0.5733C23.9888,22.9868,23.907,22.7863,23.7561,22.6354z M18.0973,9.8509
	c0,4.5541-3.7015,8.2586-8.2527,8.2586c-4.5507,0-8.2532-3.7044-8.2532-8.2586c0-4.5537,3.7025-8.2586,8.2532-8.2586
	C14.3958,1.5923,18.0973,5.2973,18.0973,9.8509z"/>
</svg>
