<?xml version="1.0" encoding="utf-8"?>
<!-- Generator: Adobe Illustrator 25.2.3, SVG Export Plug-In . SVG Version: 6.00 Build 0)  -->
<svg version="1.1" id="Layer_1" xmlns="http://www.w3.org/2000/svg" xmlns:xlink="http://www.w3.org/1999/xlink" x="0px" y="0px"
	 viewBox="0 0 22.7315 24" style="enable-background:new 0 0 22.7315 24;" xml:space="preserve">
<g>
	<path d="M13.2998,0.7646h-0.751v10.1826h10.1826v-0.751C22.7246,5.0015,18.4941,0.7705,13.2998,0.7646z M21.1934,9.4458h-7.1426
		v-7.144C17.8027,2.6646,20.8311,5.6929,21.1934,9.4458z"/>
	<path d="M10.1929,4.623H9.4204C4.2197,4.6289-0.0059,8.8643,0,14.0645c0.0029,2.5195,0.9863,4.8867,2.77,6.666
		c1.7808,1.7764,4.146,2.7549,6.6611,2.7549c0.0034,0,0.0073,0,0.0107,0c5.1948-0.0059,9.4253-4.2363,9.4321-9.4316v-0.751h-8.6812
		V4.623z M1.5337,14.6348c-0.1548-2.1123,0.522-4.1592,1.9058-5.7622c1.3467-1.5601,3.2065-2.519,5.252-2.7124v8.6455h8.6445
		c-0.3643,3.8125-3.4785,6.875-7.3135,7.1562c-2.1157,0.1562-4.1587-0.5215-5.7617-1.9053
		C2.6572,18.6729,1.689,16.7471,1.5337,14.6348z"/>
</g>
</svg>
