<?xml version="1.0" encoding="utf-8"?>
<!-- Generator: Adobe Illustrator 25.2.3, SVG Export Plug-In . SVG Version: 6.00 Build 0)  -->
<svg version="1.1" id="Layer_1" xmlns="http://www.w3.org/2000/svg" xmlns:xlink="http://www.w3.org/1999/xlink" x="0px" y="0px"
	 viewBox="0 0 21.0398 24" style="enable-background:new 0 0 21.0398 24;" xml:space="preserve">
<path d="M21.035,9.7109c0.0225-0.1992-0.0342-0.3955-0.1592-0.5522c-0.125-0.1572-0.3037-0.2559-0.5029-0.2783l-6.6221-0.7485
	l-2.5366-6.2183c-0.0762-0.1855-0.2261-0.3354-0.4111-0.4111c-0.3828-0.1553-0.8228,0.0278-0.979,0.4111L7.2884,8.1318
	L0.6663,8.8804C0.4818,8.9014,0.3128,8.9893,0.1903,9.127c-0.1333,0.1499-0.2007,0.3428-0.189,0.543
	c0.0112,0.2002,0.1001,0.3843,0.25,0.5176l5.0083,4.459l-1.5635,6.833c-0.0439,0.1934-0.0107,0.3936,0.0942,0.5635
	c0.1055,0.1699,0.2715,0.2891,0.4663,0.335c0.0576,0.0127,0.1152,0.0195,0.1729,0.0195c0.1382,0,0.2739-0.0381,0.394-0.1133
	l5.6958-3.5322l5.6953,3.5322c0.1621,0.1016,0.375,0.1328,0.542,0.0986c0.1963-0.0381,0.3662-0.1514,0.4785-0.3184
	c0.1113-0.166,0.1514-0.3662,0.1123-0.5635l-1.3545-6.8545l4.8076-4.4697C20.9315,10.0542,21.0145,9.8887,21.035,9.7109z
	 M6.8221,14.5488c0.061-0.2666-0.0278-0.5459-0.2324-0.7275l-4.084-3.6377l5.3945-0.6099c0.2725-0.0308,0.5063-0.208,0.6104-0.4624
	l2.0088-4.9253l2.0088,4.9248c0.1035,0.2544,0.3369,0.4316,0.6113,0.4629l5.4414,0.6157l-3.916,3.6426
	c-0.1914,0.1777-0.2764,0.4375-0.2256,0.6953l1.1006,5.5713l-4.6255-2.8682c-0.1196-0.0742-0.2563-0.1133-0.395-0.1133
	c-0.1392,0-0.2759,0.0391-0.396,0.1133l-4.5625,2.8301L6.8221,14.5488z"/>
</svg>
