<?xml version="1.0" encoding="utf-8"?>
<!-- Generator: Adobe Illustrator 25.2.3, SVG Export Plug-In . SVG Version: 6.00 Build 0)  -->
<svg version="1.1" id="Layer_1" xmlns="http://www.w3.org/2000/svg" xmlns:xlink="http://www.w3.org/1999/xlink" x="0px" y="0px"
	 viewBox="0 0 23.9761 24" style="enable-background:new 0 0 23.9761 24;" xml:space="preserve">
<path d="M21.8208,4.5698H9.1348L7.1421,2.1377H0v17.3379c0.0015,1.1865,0.9683,2.1523,2.1548,2.1553h19.666
	c1.1865-0.0029,2.1523-0.9688,2.1553-2.1553V6.7236C23.9731,5.5376,23.0073,4.5713,21.8208,4.5698z M1.5015,3.6392h4.9297
	l1.9922,2.4321h13.3975c0.3594,0.0005,0.6523,0.2935,0.6523,0.6528v2.5342H1.5015V3.6392z M22.4731,10.7598v8.7158
	c0,0.3604-0.292,0.6523-0.6523,0.6523H2.1548c-0.3594,0-0.6523-0.293-0.6533-0.6523v-8.7158H22.4731z"/>
</svg>
