<?xml version="1.0" encoding="utf-8"?>
<!-- Generator: Adobe Illustrator 25.2.3, SVG Export Plug-In . SVG Version: 6.00 Build 0)  -->
<svg version="1.1" id="Layer_1" xmlns="http://www.w3.org/2000/svg" xmlns:xlink="http://www.w3.org/1999/xlink" x="0px" y="0px"
	 viewBox="0 0 21.0147 24" style="enable-background:new 0 0 21.0147 24;" xml:space="preserve">
<g>
	<path d="M21.0103,9.646c0.0205-0.1846-0.0322-0.3657-0.1475-0.5103c-0.1152-0.145-0.2803-0.2358-0.4648-0.2568l-6.6885-0.7598
		L11.15,1.8101c-0.1074-0.2632-0.3594-0.4326-0.6431-0.4326c-0.2832,0-0.5356,0.1694-0.6426,0.4326L7.3028,8.1191L0.6153,8.8789
		C0.4454,8.8979,0.2896,8.978,0.1764,9.105c-0.2549,0.2852-0.2305,0.7241,0.0537,0.9795l5.0605,4.5259L3.711,21.543
		c-0.0405,0.1777-0.0083,0.3672,0.0879,0.5205c0.1309,0.2109,0.3579,0.3271,0.5898,0.3271c0.125,0,0.2515-0.0342,0.3652-0.1045
		l5.7529-3.584l5.7524,3.584c0.1484,0.0928,0.3467,0.1201,0.498,0.0918c0.1816-0.0352,0.3389-0.1387,0.4434-0.292
		c0.1035-0.1543,0.1416-0.3398,0.1064-0.5225L15.94,14.6094l4.8535-4.5352C20.9146,9.9614,20.9908,9.8096,21.0103,9.646z
		 M6.734,14.5195c0.0562-0.2441-0.0254-0.501-0.2134-0.6699L2.3087,10.082l5.5596-0.6313c0.2524-0.0278,0.4692-0.1919,0.5649-0.4282
		l2.0737-5.1079l2.0728,5.1079c0.0957,0.2363,0.3125,0.4004,0.5654,0.4282l5.6045,0.6367l-4.0381,3.772
		c-0.1768,0.1641-0.2549,0.4043-0.208,0.6396l1.1338,5.7646l-4.7642-2.9678c-0.1104-0.0684-0.2373-0.1055-0.3662-0.1055
		s-0.2559,0.0371-0.3667,0.1055l-4.707,2.9326L6.734,14.5195z"/>
	<path d="M12.8023,12.5776c0.291-0.2476,0.3262-0.686,0.0781-0.9775c-0.1201-0.1411-0.2891-0.2271-0.4736-0.2417
		c-0.1807-0.0151-0.3633,0.0439-0.5049,0.1641l-1.9468,1.6621l-0.5522-0.4736H9.3985c-0.1328-0.0957-0.2949-0.1357-0.4575-0.1274
		c-0.1846,0.0146-0.3525,0.1001-0.4727,0.2412c-0.1206,0.1411-0.1787,0.3208-0.1641,0.5054s0.1001,0.3525,0.2402,0.4717
		L9.504,14.625c0.1216,0.1016,0.2744,0.1572,0.4316,0.1572c0.0029,0,0.0059,0,0.0093,0c0.1743-0.001,0.3438-0.0625,0.4766-0.1748
		L12.8023,12.5776z"/>
</g>
</svg>
