<?xml version="1.0" encoding="utf-8"?>
<!-- Generator: Adobe Illustrator 25.2.3, SVG Export Plug-In . SVG Version: 6.00 Build 0)  -->
<svg version="1.1" id="Layer_1" xmlns="http://www.w3.org/2000/svg" xmlns:xlink="http://www.w3.org/1999/xlink" x="0px" y="0px"
	 viewBox="0 0 23.8135 24" style="enable-background:new 0 0 23.8135 24;" xml:space="preserve">
<g>
	<path d="M11.9053,0.0859c-3.1802,0-6.1704,1.2388-8.4189,3.4878S-0.0005,8.813,0,11.9932c0,3.1807,1.2388,6.1699,3.4883,8.4189
		c2.2485,2.248,5.2378,3.4863,8.4175,3.4863c0.0005,0,0.0015,0,0.002,0c6.5649,0,11.9058-5.3418,11.9058-11.9062
		C23.8047,5.4336,18.4639,0.0923,11.9053,0.0859z M22.3105,11.9922c-0.0059,5.7314-4.6748,10.3994-10.4053,10.4043
		C6.168,22.3955,1.501,17.7275,1.5015,11.9907c0.001-5.7368,4.668-10.4033,10.4043-10.4033c0.0005,0,0.0015,0,0.002,0
		C17.6445,1.5879,22.3105,6.2554,22.3105,11.9922z"/>
	<path d="M5.0371,11.9932c0,1.835,0.7148,3.5596,2.0122,4.8564c1.2969,1.2969,3.021,2.0117,4.855,2.0117c0.0005,0,0.0015,0,0.002,0
		c1.835,0,3.5596-0.7148,4.8564-2.0117c1.2979-1.2979,2.0117-3.0225,2.0117-4.8574c-0.0049-3.7832-3.0859-6.8643-6.8691-6.8682
		C8.1182,5.1245,5.0371,8.2061,5.0371,11.9932z M17.2725,11.9922c-0.002,2.957-2.4102,5.3652-5.3672,5.3672
		c-2.959-0.001-5.3667-2.4082-5.3667-5.3672c0.0005-1.4336,0.5586-2.7812,1.5728-3.7949c1.0132-1.0137,2.3608-1.5718,3.7939-1.5718
		c0.0005,0,0.0005,0,0.001,0C14.8652,6.626,17.2725,9.0337,17.2725,11.9922z"/>
	<path d="M11.9058,9.8848c-1.1621,0-2.1074,0.9453-2.1074,2.1074s0.9453,2.1084,2.1074,2.1084c1.1616,0,2.1079-0.9463,2.1079-2.1089
		c-0.0039-1.1587-0.9492-2.104-2.1074-2.1069H11.9058z"/>
</g>
</svg>
