<?xml version="1.0" encoding="utf-8"?>
<!-- Generator: Adobe Illustrator 25.2.3, SVG Export Plug-In . SVG Version: 6.00 Build 0)  -->
<svg version="1.1" id="Layer_1" xmlns="http://www.w3.org/2000/svg" xmlns:xlink="http://www.w3.org/1999/xlink" x="0px" y="0px"
	 viewBox="0 0 23.8721 24" style="enable-background:new 0 0 23.8721 24;" xml:space="preserve">
<path d="M23.8721,1.0522L22.814,0l-3.6122,3.6337c-2.187-1.9092-4.9889-2.8681-7.8847-2.7131
	C8.3636,1.0819,5.6491,2.3838,3.6744,4.5868c-3.7677,4.2021-3.7827,10.5047-0.0573,14.7224L0,22.9478L1.058,24l3.6161-3.6386
	c4.5503,3.9738,11.4838,3.5599,15.5284-0.9473c3.7716-4.204,3.7861-10.5091,0.0564-14.7282L23.8721,1.0522z M21.5413,11.999v0.0005
	c0.0097,5.2859-4.2826,9.5939-9.5693,9.6026c-0.0049,0-0.0102,0-0.0155,0c-2.288,0-4.493-0.8152-6.2291-2.2997L19.2067,5.745
	C20.7126,7.4812,21.5403,9.6954,21.5413,11.999z M18.1486,4.6932L4.6698,18.2502C3.1653,16.514,2.338,14.3007,2.3376,11.999v-0.0005
	c-0.0039-2.5601,0.989-4.9692,2.7971-6.7826c1.8076-1.8139,4.2131-2.8147,6.7737-2.819c0.0049,0,0.0092,0,0.0141,0
	C14.209,2.3969,16.4125,3.2111,18.1486,4.6932z"/>
</svg>
