<?xml version="1.0" encoding="utf-8"?>
<!-- Generator: Adobe Illustrator 25.2.3, SVG Export Plug-In . SVG Version: 6.00 Build 0)  -->
<svg version="1.1" id="Layer_1" xmlns="http://www.w3.org/2000/svg" xmlns:xlink="http://www.w3.org/1999/xlink" x="0px" y="0px"
	 viewBox="0 0 21.4933 24" style="enable-background:new 0 0 21.4933 24;" xml:space="preserve">
<g>
	<path d="M10.6327,7.6562c-2.2725,0.0356-4.0928,1.9131-4.0571,4.1816l-0.001,0.0879c0.0078,2.2607,1.8496,4.0947,4.1084,4.0947
		c0.0049,0,0.0098,0,0.0146,0l0.1074-0.001c1.0967-0.0254,2.1182-0.4756,2.877-1.2686c0.7578-0.793,1.1611-1.834,1.1367-2.9224
		c0.001-0.0391,0.001-0.0781,0-0.1152c-0.0176-1.1011-0.4629-2.1294-1.2529-2.8955C12.7758,8.0513,11.7357,7.6211,10.6327,7.6562z
		 M13.3178,11.8442c0.0205,0.6978-0.2471,1.3843-0.7354,1.8843c-0.4941,0.5039-1.1768,0.79-1.8804,0.79
		c-0.0156,0-0.0312,0-0.0464-0.001c-0.7017-0.0127-1.3564-0.2979-1.8433-0.8037c-0.4873-0.5049-0.748-1.1699-0.7354-1.8784
		l-0.001-0.0552c0.0005-1.4448,1.1763-2.6206,2.6211-2.6206l0.0635,0.001C12.2025,9.1934,13.349,10.3936,13.3178,11.8442z"/>
	<path d="M20.599,13.4023l-1.3311-1.1768c0.001-0.1025,0.002-0.2168,0.002-0.3862l-0.002-0.2959l1.3867-1.0176
		c0.8438-0.5996,1.0889-1.7656,0.5605-2.6528l-1.9951-3.4312L19.141,4.3228c-0.5312-0.8125-1.5918-1.1006-2.4609-0.6714
		l-1.4482,0.7212c-0.1396-0.0864-0.2871-0.1719-0.4414-0.2554l-0.1348-1.5996c-0.0078-0.4868-0.2041-0.9434-0.5518-1.2832
		c-0.3623-0.3672-0.8447-0.5732-1.3623-0.5796H8.8617C7.85,0.6646,7.0297,1.4321,6.9535,2.4336l-0.209,1.7427
		c-0.1792,0.0996-0.354,0.2075-0.522,0.3213L4.6996,3.8125L4.5272,3.7549c-0.9009-0.2925-1.8911,0.1304-2.292,0.978L0.3221,8.0254
		c-0.5693,0.896-0.3423,2.0869,0.5156,2.7109l1.3931,1.022c-0.001,0.0801-0.001,0.1729-0.001,0.2949
		c0,0.1094,0.0005,0.207,0.0015,0.2959l-1.3911,1.019c-0.853,0.6113-1.0908,1.7529-0.5547,2.6533l1.9937,3.4287l0.0771,0.1162
		c0.5234,0.8135,1.5747,1.1094,2.4395,0.6865l1.4365-0.6484c0.1533,0.0967,0.313,0.1904,0.4756,0.2783l0.1357,1.5996
		c0.0078,0.4873,0.2046,0.9443,0.5518,1.2832c0.3623,0.3672,0.8452,0.5732,1.3623,0.5801h3.8804
		c1.0391-0.0098,1.8799-0.832,1.9121-1.8623l0.1328-1.5713c0.167-0.0938,0.3311-0.1953,0.4883-0.3027l1.5234,0.6846l0.1758,0.0596
		c0.9023,0.2891,1.8887-0.1357,2.29-0.9795l1.9111-3.293C21.6322,15.2031,21.4203,14.0225,20.599,13.4023z M17.3246,18.9238
		l-2.2451-0.999l-0.083-0.0361l-0.5605,0.4033c-0.2441,0.1777-0.5059,0.332-0.7754,0.457l-0.4023,0.1816l-0.207,2.4824
		c-0.0098,0.2324-0.1924,0.418-0.415,0.4307l-3.8726,0.001c-0.1152-0.0049-0.2217-0.0527-0.3047-0.1396
		c-0.0732-0.0713-0.1157-0.1709-0.1167-0.2852l-0.2085-2.5068L7.746,18.7256c-0.354-0.168-0.6943-0.3662-1.0112-0.5889
		l-0.3506-0.2471l-2.229,1.0059c-0.2183,0.0928-0.4668,0.0049-0.582-0.208l-1.9922-3.4258
		c-0.1377-0.2324-0.0708-0.5342,0.1567-0.6895l2.0259-1.4854l-0.022-0.4043c-0.0078-0.1631-0.0103-0.356-0.0103-0.6294
		c0-0.2407,0.001-0.356,0.0068-0.5083L3.764,11.02L1.7343,9.5317C1.5092,9.3696,1.4476,9.0576,1.597,8.8174l1.9897-3.4429
		C3.6678,5.1577,3.9896,5.165,4.0707,5.1831l2.3252,1.0391l0.561-0.4067c0.249-0.1807,0.5156-0.3369,0.7915-0.4639l0.3887-0.1743
		l0.3105-2.6094c0.0195-0.2217,0.2021-0.3989,0.4155-0.4116h3.8735c0.1123,0.0034,0.2217,0.0527,0.3047,0.1396
		c0.0732,0.0703,0.1143,0.1694,0.1152,0.2842l0.208,2.5073l0.3887,0.1855c0.3447,0.1646,0.6797,0.3594,0.9961,0.5786l0.3652,0.2563
		l2.2324-1.1113c0.2158-0.0923,0.4668-0.0049,0.5781,0.208l1.9922,3.4268c0.1387,0.2324,0.0723,0.5332-0.1572,0.6885l-2.0244,1.4854
		l0.0225,0.4043c0.0078,0.1621,0.0088,0.354,0.0088,0.6299c0,0.2456-0.001,0.3638-0.0059,0.5093l-0.0312,0.5234l1.8906,1.6689
		l0.04,0.0342c0.2246,0.1621,0.2852,0.4746,0.1357,0.7148l-1.9883,3.4414C17.7308,18.9385,17.4232,18.9473,17.3246,18.9238z"/>
</g>
</svg>
