<?xml version="1.0" encoding="utf-8"?>
<!-- Generator: Adobe Illustrator 25.2.3, SVG Export Plug-In . SVG Version: 6.00 Build 0)  -->
<svg version="1.1" id="Layer_1" xmlns="http://www.w3.org/2000/svg" xmlns:xlink="http://www.w3.org/1999/xlink" x="0px" y="0px"
	 viewBox="0 0 29.3774 24" style="enable-background:new 0 0 29.3774 24;" xml:space="preserve">
<g>
	<polygon points="25.9741,11.8071 29.147,6.873 27.3599,6.873 25.0806,10.4175 22.8022,6.873 21.0161,6.873 24.188,11.8071 
		20.7837,17.0996 22.5708,17.0996 25.0806,13.1963 27.5903,17.0996 29.3774,17.0996 	"/>
	<path d="M14.8003,6.873l-3.9019,10.2266h1.6069l1.0845-2.8418h3.9517l1.085,2.8418h1.6064L16.3306,6.873H14.8003z M16.9683,12.7554
		h-2.8052l1.4028-3.6758L16.9683,12.7554z"/>
	<polygon points="5.0752,14.5586 2.2266,6.8813 0,6.8813 0,17.0996 1.5015,17.0996 1.5015,9.2422 4.4165,17.0996 5.7339,17.0996 
		8.6489,9.2422 8.6489,17.0996 10.1504,17.0996 10.1504,6.8813 7.9238,6.8813 	"/>
</g>
</svg>
