<?xml version="1.0" encoding="utf-8"?>
<!-- Generator: Adobe Illustrator 25.2.3, SVG Export Plug-In . SVG Version: 6.00 Build 0)  -->
<svg version="1.1" id="Layer_1" xmlns="http://www.w3.org/2000/svg" xmlns:xlink="http://www.w3.org/1999/xlink" x="0px" y="0px"
	 viewBox="0 0 3.2778 24" style="enable-background:new 0 0 3.2778 24;" xml:space="preserve">
<g>
	<path d="M1.6387,10.6964C0.7349,10.6964,0,11.4318,0,12.3356s0.7349,1.6392,1.6387,1.6392s1.6392-0.7354,1.6392-1.6392
		S2.5425,10.6964,1.6387,10.6964z"/>
	<path d="M1.6387,8.0539c0.9038,0,1.6392-0.7354,1.6392-1.6392S2.5425,4.776,1.6387,4.776S0,5.5109,0,6.4147
		S0.7349,8.0539,1.6387,8.0539z"/>
	<path d="M1.6387,16.6164C0.7349,16.6164,0,17.3517,0,18.256s0.7349,1.6396,1.6387,1.6396s1.6392-0.7354,1.6392-1.6396
		S2.5425,16.6164,1.6387,16.6164z"/>
</g>
</svg>
